<svg xmlns="http://www.w3.org/2000/svg" width="22" height="22" viewBox="0 0 22 22">
  <g id="Group_8671" data-name="Group 8671" transform="translate(-1087 -336)">
    <path id="Path_13020" data-name="Path 13020" d="M11,0A11,11,0,1,1,0,11,11,11,0,0,1,11,0Z" transform="translate(1087 336)" fill="#e6e6e6" opacity="0.5"/>
    <path id="Path_13047" data-name="Path 13047" d="M.062,0,3.938-5.223.52-10.021H2.1l1.818,2.57a14.621,14.621,0,0,1,.807,1.23,13.086,13.086,0,0,1,.793-1.142l2.017-2.659H8.976L5.455-5.3,9.249,0H7.608L5.086-3.575q-.212-.308-.437-.67-.335.547-.479.752L1.654,0Z" transform="translate(1093 352)" fill="#fff"/>
  </g>
</svg>
