<svg xmlns="http://www.w3.org/2000/svg" width="22" height="22" viewBox="0 0 22 22">
  <g id="Group_8537" data-name="Group 8537" transform="translate(3 -4)" opacity="0.5">
    <path id="Path_13020" data-name="Path 13020" d="M11,0A11,11,0,1,1,0,11,11,11,0,0,1,11,0Z" transform="translate(-3 4)" fill="#23a5d6"/>
    <path id="Path_13046" data-name="Path 13046" d="M5.031-1.456a6.057,6.057,0,0,1-.612.482A6.512,6.512,0,0,1,3.63-.5a6.026,6.026,0,0,1-.865.359A2.706,2.706,0,0,1,1.928,0a1.586,1.586,0,0,1-.6-.1A1,1,0,0,1,.937-.376,1.066,1.066,0,0,1,.721-.81a2.3,2.3,0,0,1-.065-.564,6.214,6.214,0,0,1,.1-1A12.629,12.629,0,0,1,1-3.623q.1-.3.383-1.333.232-.861.287-1.121a.55.55,0,0,1,.191-.308,1.276,1.276,0,0,1,.325-.2A1.8,1.8,0,0,1,2.56-6.7a1.875,1.875,0,0,1,.352-.038.542.542,0,0,1,.39.106.391.391,0,0,1,.1.284,2.016,2.016,0,0,1-.068.434q-.068.284-.171.643t-.26.861q-.157.5-.26.916t-.171.807a4.17,4.17,0,0,0-.068.708,1.42,1.42,0,0,0,.068.489.271.271,0,0,0,.28.181A1.128,1.128,0,0,0,3.3-1.483,4.876,4.876,0,0,0,3.91-1.9q.308-.243.6-.5t.52-.444ZM1.976-8.62a1.1,1.1,0,0,1,.068-.355,1.108,1.108,0,0,1,.222-.373,1.232,1.232,0,0,1,.41-.294,1.51,1.51,0,0,1,.639-.12,1.8,1.8,0,0,1,.451.055,1.1,1.1,0,0,1,.369.167.8.8,0,0,1,.25.3.968.968,0,0,1,.092.438,1.378,1.378,0,0,1-.075.451,1.05,1.05,0,0,1-.239.39,1.231,1.231,0,0,1-.414.277,1.526,1.526,0,0,1-.6.106,1.221,1.221,0,0,1-.889-.284A1.014,1.014,0,0,1,1.976-8.62Z" transform="translate(5 20)" fill="#fff"/>
  </g>
</svg>
