<svg xmlns="http://www.w3.org/2000/svg" width="13" height="13" viewBox="0 0 13 13">
  <g id="Group_223" data-name="Group 223" transform="translate(-925 -337.82)">
    <circle id="Ellipse_93" data-name="Ellipse 93" cx="6.5" cy="6.5" r="6.5" transform="translate(925 337.82)" fill="#e6e6e6"/>
    <path id="Path_12810" data-name="Path 12810" d="M4.313-1.248a5.192,5.192,0,0,1-.524.413,5.582,5.582,0,0,1-.677.4,5.165,5.165,0,0,1-.741.308A2.32,2.32,0,0,1,1.652,0,1.36,1.36,0,0,1,1.14-.085.855.855,0,0,1,.8-.322.914.914,0,0,1,.618-.694a1.967,1.967,0,0,1-.056-.483,5.326,5.326,0,0,1,.082-.861A10.825,10.825,0,0,1,.855-3.105q.082-.258.328-1.143.2-.738.246-.961a.471.471,0,0,1,.164-.264,1.093,1.093,0,0,1,.278-.173,1.54,1.54,0,0,1,.322-.1,1.607,1.607,0,0,1,.3-.032.465.465,0,0,1,.334.091.335.335,0,0,1,.088.243,1.728,1.728,0,0,1-.059.372q-.059.243-.146.551t-.223.738q-.135.431-.223.785t-.146.691a3.574,3.574,0,0,0-.059.606,1.217,1.217,0,0,0,.059.419.232.232,0,0,0,.24.155.967.967,0,0,0,.469-.146,4.18,4.18,0,0,0,.521-.354q.264-.208.516-.431t.445-.381ZM1.693-7.389a.947.947,0,0,1,.059-.3.95.95,0,0,1,.19-.319,1.056,1.056,0,0,1,.352-.252,1.294,1.294,0,0,1,.548-.1,1.543,1.543,0,0,1,.387.047.94.94,0,0,1,.316.144.684.684,0,0,1,.214.255.83.83,0,0,1,.079.375,1.181,1.181,0,0,1-.064.387.9.9,0,0,1-.205.334,1.055,1.055,0,0,1-.354.237A1.308,1.308,0,0,1,2.7-6.5a1.046,1.046,0,0,1-.762-.243A.869.869,0,0,1,1.693-7.389Z" transform="translate(929 348.82)" fill="#fff"/>
  </g>
</svg>
