<svg xmlns="http://www.w3.org/2000/svg" width="159.332" height="44.59" viewBox="0 0 159.332 44.59">
  <g id="Group_664" data-name="Group 664" transform="translate(2280.382 -4258.386)">
    <g id="Group_662" data-name="Group 662" transform="translate(-2223.999 4272.812)">
      <path id="Path_12795" data-name="Path 12795" d="M-2010.326,4326.451v2.413h-8.108v4.021h7.282v2.282h-7.282v4.064h8.369v2.413H-2021v-15.194Z" transform="translate(2020.999 -4326.082)" fill="#1b222a"/>
      <path id="Path_12796" data-name="Path 12796" d="M-1952.023,4341.646h-2.87l-6.108-15.194h2.87l4.674,11.347,4.673-11.347h2.869Z" transform="translate(1974.043 -4326.082)" fill="#1b222a"/>
      <path id="Path_12797" data-name="Path 12797" d="M-1866.928,4326.451v2.413h-8.108v4.021h7.282v2.282h-7.282v4.064h8.369v2.413H-1877.6v-15.194Z" transform="translate(1908.772 -4326.082)" fill="#1b222a"/>
      <path id="Path_12798" data-name="Path 12798" d="M-1796.073,4331.386q0,3.76-3.282,4.739l3.978,5.521h-3.261l-3.63-5.108h-3.369v5.108h-2.565v-15.194h5.652q3.478,0,4.978,1.174A4.483,4.483,0,0,1-1796.073,4331.386Zm-3.413,2.152a2.71,2.71,0,0,0,.782-2.163,2.316,2.316,0,0,0-.8-2.044,5.357,5.357,0,0,0-2.869-.554h-3.261v5.434h3.2A4.7,4.7,0,0,0-1799.485,4333.538Z" transform="translate(1854.459 -4326.082)" fill="#1b222a"/>
      <path id="Path_12799" data-name="Path 12799" d="M-1720.729,4326.451v2.413h-8.108v4.021h7.282v2.282h-7.282v4.064h8.369v2.413H-1731.4v-15.194Z" transform="translate(1794.353 -4326.082)" fill="#1b222a"/>
      <path id="Path_12800" data-name="Path 12800" d="M-1661.866,4327.12a3.371,3.371,0,0,0-1.837.456,1.526,1.526,0,0,0-.718,1.38,1.6,1.6,0,0,0,.718,1.413,10.828,10.828,0,0,0,3.054,1.055,8.409,8.409,0,0,1,3.522,1.586,3.761,3.761,0,0,1,1.184,3.011,3.989,3.989,0,0,1-1.5,3.228,5.978,5.978,0,0,1-3.935,1.239,9.239,9.239,0,0,1-6.326-2.457l1.609-1.934a7.242,7.242,0,0,0,4.782,2,3.266,3.266,0,0,0,1.967-.533,1.666,1.666,0,0,0,.728-1.413,1.587,1.587,0,0,0-.685-1.37,7.2,7.2,0,0,0-2.359-.891,21,21,0,0,1-2.543-.74,5.727,5.727,0,0,1-1.543-.88,3.675,3.675,0,0,1-1.348-3.13,3.811,3.811,0,0,1,1.532-3.25,6.173,6.173,0,0,1,3.793-1.142,9.1,9.1,0,0,1,2.891.479,7.568,7.568,0,0,1,2.478,1.348l-1.37,1.935a5.186,5.186,0,0,0-1.826-1A7.025,7.025,0,0,0-1661.866,4327.12Z" transform="translate(1744.501 -4324.75)" fill="#1b222a"/>
      <path id="Path_12801" data-name="Path 12801" d="M-1594.431,4328.8v12.847H-1597V4328.8h-4.608v-2.347h11.782v2.347Z" transform="translate(1692.77 -4326.082)" fill="#1b222a"/>
    </g>
    <g id="Group_663" data-name="Group 663" transform="translate(-2280.382 4258.386)">
      <path id="Path_12802" data-name="Path 12802" d="M-2257.216,4258.386h-.871a22.3,22.3,0,0,0-22.295,22.295h0a22.39,22.39,0,0,0,.5,4.7l7.375-7.376a3.352,3.352,0,0,1,4.74,0h0a3.352,3.352,0,0,1,0,4.74l-9.426,9.426a22.393,22.393,0,0,0,1.937,2.728l9.821-9.822a3.353,3.353,0,0,1,4.74,0h0a3.352,3.352,0,0,1,0,4.74l-9.55,9.549a22.288,22.288,0,0,0,2.931,1.611l8.636-8.636a3.352,3.352,0,0,1,4.74,0,3.351,3.351,0,0,1,0,4.739l-5.827,5.828q.832.062,1.679.063h.871a22.3,22.3,0,0,0,22.295-22.3h0A22.3,22.3,0,0,0-2257.216,4258.386Z" transform="translate(2280.382 -4258.386)" fill="#23a5d6"/>
      <path id="Path_12803" data-name="Path 12803" d="M-2265.973,4345.128h0a3.351,3.351,0,0,0-4.739,0l-7.376,7.375a22.166,22.166,0,0,0,2.69,6.79l9.426-9.426A3.351,3.351,0,0,0-2265.973,4345.128Z" transform="translate(2278.587 -4325.504)" fill="#fff"/>
      <path id="Path_12804" data-name="Path 12804" d="M-2242.244,4377.661h0a3.352,3.352,0,0,0-4.74,0l-9.821,9.821a22.428,22.428,0,0,0,5.011,4.468l9.549-9.549A3.352,3.352,0,0,0-2242.244,4377.661Z" transform="translate(2261.93 -4350.966)" fill="#fff"/>
      <path id="Path_12805" data-name="Path 12805" d="M-2206.892,4411.081a3.352,3.352,0,0,0-4.74,0l-8.636,8.636a22.157,22.157,0,0,0,7.548,1.931l5.827-5.828A3.351,3.351,0,0,0-2206.892,4411.081Z" transform="translate(2233.334 -4377.121)" fill="#fff"/>
    </g>
  </g>
</svg>
