<svg xmlns="http://www.w3.org/2000/svg" width="22.42" height="20.104" viewBox="0 0 22.42 20.104">
  <g id="Group_8666" data-name="Group 8666" transform="translate(-54.547 -198.232)">
    <g id="Group_8605" data-name="Group 8605" transform="translate(54.547 198.232)">
      <path id="Path_13036" data-name="Path 13036" d="M1715.813,675.13h-18.7a1.865,1.865,0,0,1-1.862-1.863V661.814a1.865,1.865,0,0,1,1.862-1.863h18.7a1.865,1.865,0,0,1,1.863,1.863v11.453A1.865,1.865,0,0,1,1715.813,675.13Zm-18.7-14.271a.956.956,0,0,0-.954.955v11.453a.955.955,0,0,0,.954.954h18.7a.956.956,0,0,0,.955-.954V661.814a.956.956,0,0,0-.955-.955Z" transform="translate(-1695.255 -659.951)" fill="#23a5d6"/>
      <g id="Group_8603" data-name="Group 8603" transform="translate(6.283 14.767)">
        <g id="Group_8602" data-name="Group 8602" transform="translate(0 0)">
          <path id="Path_13037" data-name="Path 13037" d="M1784.379,852.66h-8.946a.454.454,0,0,1-.454-.454v-.639a.454.454,0,0,1,.363-.445,8.811,8.811,0,0,0,3.078-1.08,9.736,9.736,0,0,0,.333-2.719l.908.021c-.024,1.022-.128,2.808-.559,3.3a6.023,6.023,0,0,1-2.484,1.11h6.575a6.026,6.026,0,0,1-2.483-1.11c-.43-.489-.535-2.276-.559-3.3l.908-.021a9.567,9.567,0,0,0,.339,2.726,8.906,8.906,0,0,0,3.073,1.072.454.454,0,0,1,.363.445v.639A.454.454,0,0,1,1784.379,852.66Z" transform="translate(-1774.979 -847.323)" fill="#23a5d6"/>
        </g>
      </g>
      <rect id="Rectangle_1674" data-name="Rectangle 1674" width="20.98" height="0.908" transform="translate(0.72 12.194)" fill="#23a5d6"/>
      <g id="Group_8604" data-name="Group 8604" transform="translate(4.515 3.741)">
        <path id="Path_13038" data-name="Path 13038" d="M1753.05,721.661l-.507-.753,4.9-3.3a.454.454,0,0,1,.575.055l2.234,2.234,4.777-4.031.585.694-5.1,4.3a.453.453,0,0,1-.614-.026l-2.265-2.265Z" transform="translate(-1752.543 -715.2)" fill="#23a5d6"/>
        <path id="Path_13039" data-name="Path 13039" d="M1894.469,710.026h-.908v-1.7h-1.7v-.908h2.611Z" transform="translate(-1880.878 -707.415)" fill="#23a5d6"/>
      </g>
    </g>
  </g>
</svg>
