<svg xmlns="http://www.w3.org/2000/svg" width="103.5" height="31.5" viewBox="0 0 103.5 31.5">
  <g id="Group_8667" data-name="Group 8667" transform="translate(-727.5 -588.5)">
    <text id="Bank_Transfers" data-name="Bank
Transfers" transform="translate(777 601)" fill="#1b222a" font-size="12" font-family="Montserrat-Light, Montserrat" font-weight="300"><tspan x="0" y="0">Bank</tspan><tspan x="0" y="16">Transfers</tspan></text>
    <line id="Line_186" data-name="Line 186" y2="27" transform="translate(767.5 590.5)" fill="none" stroke="#e6e6e6" stroke-width="1"/>
    <g id="Group_8529" data-name="Group 8529" transform="translate(543 316)">
      <g id="Group_8519" data-name="Group 8519" transform="translate(185 280.982)">
        <path id="Path_11297" data-name="Path 11297" d="M204,301.824v-7.368a2.456,2.456,0,0,1,4.912,0v7.368" transform="translate(-192.334 -288.316)" fill="none" stroke="#23a5d6" stroke-miterlimit="10" stroke-width="1"/>
        <g id="Group_8510" data-name="Group 8510" transform="translate(0 14.736)">
          <path id="Path_11298" data-name="Path 11298" d="M193.6,314.3H185v-2.456h1.228V310h25.787v1.842h1.228V314.3h-8.6" transform="translate(-185 -310)" fill="none" stroke="#23a5d6" stroke-linejoin="round" stroke-width="1"/>
          <g id="Group_8509" data-name="Group 8509" transform="translate(10.105 1.851)">
            <line id="Line_8" data-name="Line 8" x2="8.268" transform="translate(0 3.675)" fill="none" stroke="#23a5d6" stroke-miterlimit="10" stroke-width="1"/>
            <line id="Line_9" data-name="Line 9" x2="8.268" transform="translate(0 0)" fill="none" stroke="#23a5d6" stroke-miterlimit="10" stroke-width="1"/>
            <line id="Line_10" data-name="Line 10" x2="8.268" transform="translate(0 1.837)" fill="none" stroke="#23a5d6" stroke-miterlimit="10" stroke-width="1"/>
          </g>
        </g>
        <path id="Path_11299" data-name="Path 11299" d="M222.912,307.228V306H218v1.228" transform="translate(-197.739 -293.72)" fill="none" stroke="#23a5d6" stroke-linejoin="round" stroke-width="1"/>
        <g id="Group_8512" data-name="Group 8512" transform="translate(19.647)">
          <line id="Line_11" data-name="Line 11" y2="9.187" transform="translate(1.482 2.807)" fill="none" stroke="#23a5d6" stroke-linecap="round" stroke-linejoin="bevel" stroke-width="1"/>
          <g id="Group_8511" data-name="Group 8511">
            <path id="Path_11300" data-name="Path 11300" d="M218.842,288.291a1.228,1.228,0,1,1-.614-2.291" transform="translate(-217 -286)" fill="none" stroke="#23a5d6" stroke-linecap="round" stroke-linejoin="bevel" stroke-width="1"/>
          </g>
        </g>
        <g id="Group_8514" data-name="Group 8514" transform="translate(23.886)">
          <line id="Line_12" data-name="Line 12" y2="9.187" transform="translate(0 2.807)" fill="none" stroke="#23a5d6" stroke-linecap="round" stroke-linejoin="bevel" stroke-width="1"/>
          <g id="Group_8513" data-name="Group 8513" transform="translate(0.06)">
            <path id="Path_11301" data-name="Path 11301" d="M224,288.291a1.228,1.228,0,1,0,.614-2.291" transform="translate(-224 -286)" fill="none" stroke="#23a5d6" stroke-linecap="round" stroke-linejoin="bevel" stroke-width="1"/>
          </g>
        </g>
        <path id="Path_11302" data-name="Path 11302" d="M194.912,307.228V306H190v1.228" transform="translate(-186.93 -293.72)" fill="none" stroke="#23a5d6" stroke-linejoin="round" stroke-width="1"/>
        <g id="Group_8516" data-name="Group 8516" transform="translate(2.456)">
          <line id="Line_13" data-name="Line 13" y2="9.187" transform="translate(2.137 2.807)" fill="none" stroke="#23a5d6" stroke-linecap="round" stroke-linejoin="bevel" stroke-width="1"/>
          <g id="Group_8515" data-name="Group 8515">
            <path id="Path_11303" data-name="Path 11303" d="M190.842,288.291a1.228,1.228,0,1,1-.614-2.291" transform="translate(-189 -286)" fill="none" stroke="#23a5d6" stroke-linecap="round" stroke-linejoin="bevel" stroke-width="1"/>
          </g>
        </g>
        <g id="Group_8518" data-name="Group 8518" transform="translate(6.431)">
          <line id="Line_14" data-name="Line 14" y2="9.187" transform="translate(0 2.807)" fill="none" stroke="#23a5d6" stroke-linecap="round" stroke-linejoin="bevel" stroke-width="1"/>
          <g id="Group_8517" data-name="Group 8517" transform="translate(0.323)">
            <path id="Path_11304" data-name="Path 11304" d="M196,288.291a1.228,1.228,0,1,0,.614-2.291" transform="translate(-196 -286)" fill="none" stroke="#23a5d6" stroke-linecap="round" stroke-linejoin="bevel" stroke-width="1"/>
          </g>
        </g>
      </g>
      <g id="Group_8521" data-name="Group 8521" transform="translate(185 273)">
        <circle id="Ellipse_92" data-name="Ellipse 92" cx="1.535" cy="1.535" r="1.535" transform="translate(12.587 2.763)" fill="none" stroke="#23a5d6" stroke-linejoin="round" stroke-width="1"/>
        <g id="Group_8520" data-name="Group 8520" transform="translate(0.919 5.276)">
          <line id="Line_15" data-name="Line 15" x2="8.268" transform="translate(0)" fill="none" stroke="#23a5d6" stroke-linejoin="round" stroke-width="1"/>
          <line id="Line_16" data-name="Line 16" x2="7.349" transform="translate(18.373)" fill="none" stroke="#23a5d6" stroke-linejoin="round" stroke-width="1"/>
        </g>
        <path id="Path_11305" data-name="Path 11305" d="M211.831,278.526h1.412v2.456H185v-2.456h1.412L199.122,273Z" transform="translate(-185 -273)" fill="none" stroke="#23a5d6" stroke-linecap="round" stroke-linejoin="round" stroke-width="1"/>
      </g>
    </g>
  </g>
</svg>
