<svg xmlns="http://www.w3.org/2000/svg" width="25.172" height="21.52" viewBox="0 0 25.172 21.52">
  <g id="Group_791" data-name="Group 791" transform="translate(-1835.432 -1525.857)" opacity="0.5">
    <path id="Path_12792" data-name="Path 12792" d="M2257.363,1530.4a.446.446,0,0,0,.446-.446V1526.3a.446.446,0,0,0-.893,0v3.652A.446.446,0,0,0,2257.363,1530.4Z" transform="translate(-416.175 0)" fill="#909090"/>
    <path id="Path_12793" data-name="Path 12793" d="M3341.946,1530.4a.446.446,0,0,0,.446-.446V1526.3a.446.446,0,0,0-.893,0v3.652A.446.446,0,0,0,3341.946,1530.4Z" transform="translate(-1487.097 0)" fill="#909090"/>
    <rect id="Rectangle_1575" data-name="Rectangle 1575" width="12.203" height="0.893" transform="translate(1841.916 1527.683)" fill="#909090"/>
    <path id="Path_12794" data-name="Path 12794" d="M1859.414,1670.826h-3.836v.893h3.836a.3.3,0,0,1,.3.3v3.341h-23.386v-3.341a.3.3,0,0,1,.3-.3h3.836v-.893h-3.836a1.192,1.192,0,0,0-1.19,1.19v17.313a1.192,1.192,0,0,0,1.19,1.19h22.791a1.192,1.192,0,0,0,1.19-1.19v-17.313A1.192,1.192,0,0,0,1859.414,1670.826Zm.3,18.5a.3.3,0,0,1-.3.3h-22.791a.3.3,0,0,1-.3-.3v-13.08h23.386Z" transform="translate(0 -143.143)" fill="#909090"/>
    <rect id="Rectangle_1576" data-name="Rectangle 1576" width="3.17" height="3.001" transform="translate(1839.602 1535.353)" fill="#909090"/>
    <rect id="Rectangle_1577" data-name="Rectangle 1577" width="3.17" height="3.001" transform="translate(1839.602 1541.237)" fill="#909090"/>
    <rect id="Rectangle_1578" data-name="Rectangle 1578" width="3.17" height="3.001" transform="translate(1846.433 1535.353)" fill="#909090"/>
    <rect id="Rectangle_1579" data-name="Rectangle 1579" width="3.17" height="3.001" transform="translate(1846.433 1541.237)" fill="#909090"/>
    <rect id="Rectangle_1580" data-name="Rectangle 1580" width="3.17" height="3.001" transform="translate(1853.264 1535.353)" fill="#909090"/>
    <rect id="Rectangle_1581" data-name="Rectangle 1581" width="3.17" height="3.001" transform="translate(1853.264 1541.237)" fill="#909090"/>
  </g>
</svg>
