<svg id="Group_817" data-name="Group 817" xmlns="http://www.w3.org/2000/svg" width="23.225" height="25.758" viewBox="0 0 23.225 25.758">
  <g id="Group_813" data-name="Group 813" transform="translate(0 17)">
    <path id="Path_12898" data-name="Path 12898" d="M691.231,1042.44c1.513-.625,2.723-1.719,4.539-2.16,2.166-.525,4.806-.086,6.9.261,1.19.2.951,2.078-.133,2.023l-3.618-.183a.442.442,0,0,0-.042.884l3.612.172a2.659,2.659,0,0,0,1.284-.331c1.938-1.265,3.846-2.517,5.822-3.8,1.19-.773,3.26.85,1.6,2.172-1.624,1.292-3.154,2.387-4.776,3.895-2.313,2.15-7.7,2.4-11.36,1.528a5.886,5.886,0,0,0-2.553-.219Z" transform="translate(-688.586 -1039.105)" fill="#fff" fill-rule="evenodd"/>
    <path id="Path_12899" data-name="Path 12899" d="M595.407,1160.125a.277.277,0,1,1-.277.278.277.277,0,0,1,.277-.278m-.993-.105,1.617-.484a.182.182,0,0,1,.226.122l1.386,4.626a.182.182,0,0,1-.122.226l-1.617.484a.182.182,0,0,1-.226-.122l-1.385-4.626A.182.182,0,0,1,594.415,1160.019Z" transform="translate(-594.285 -1156.243)" fill="#fff" fill-rule="evenodd"/>
  </g>
  <g id="Group_812" data-name="Group 812" transform="translate(9.205)">
    <path id="Path_12900" data-name="Path 12900" d="M924.322,680.756a6,6,0,1,1-6,6,6,6,0,0,1,6-6m0-.936a6.934,6.934,0,1,1-6.934,6.934A6.934,6.934,0,0,1,924.322,679.82Z" transform="translate(-917.388 -679.82)" fill="#fff" fill-rule="evenodd"/>
    <path id="Path_12901" data-name="Path 12901" d="M966.964,723.883a5.512,5.512,0,1,0-5.512,5.512,5.512,5.512,0,0,0,5.512-5.512" transform="translate(-954.518 -716.949)" fill="#fff" fill-rule="evenodd"/>
    <path id="Path_12902" data-name="Path 12902" d="M1047.629,766.243V768.2h0a1.26,1.26,0,0,0,.693-.3.909.909,0,0,0,.28-.694.8.8,0,0,0-.247-.615,1.77,1.77,0,0,0-.726-.344Zm-.665-2.774h0a.98.98,0,0,0-.6.242.824.824,0,0,0-.261.638.756.756,0,0,0,.229.584,1.352,1.352,0,0,0,.633.279h0Zm.665-.78h0a2.218,2.218,0,0,1,1.254.491,1.5,1.5,0,0,1,.484,1.074.145.145,0,0,1-.145.153h-.61a.144.144,0,0,1-.143-.122.967.967,0,0,0-.28-.575.989.989,0,0,0-.559-.237h0v1.851h0a3.377,3.377,0,0,1,1.453.621,1.532,1.532,0,0,1,.44,1.172,1.65,1.65,0,0,1-.519,1.27,2.431,2.431,0,0,1-1.374.556h0v.717a.145.145,0,0,1-.145.145h-.375a.145.145,0,0,1-.145-.145v-.709h0a2.4,2.4,0,0,1-1.4-.566,1.876,1.876,0,0,1-.488-1.378.139.139,0,0,1,.042-.1.14.14,0,0,1,.1-.043h.6a.145.145,0,0,1,.145.145,1.186,1.186,0,0,0,.3.842,1.1,1.1,0,0,0,.7.329h0v-2.1h0a2.587,2.587,0,0,1-1.28-.548,1.442,1.442,0,0,1-.475-1.122,1.593,1.593,0,0,1,.51-1.224,2.03,2.03,0,0,1,1.245-.5h0v-.542a.145.145,0,0,1,.145-.145h.375a.145.145,0,0,1,.145.145Z" transform="translate(-1040.364 -758.969)" fill="#3a9ee9" fill-rule="evenodd"/>
  </g>
</svg>
