<svg xmlns="http://www.w3.org/2000/svg" width="21.429" height="20.104" viewBox="0 0 21.429 20.104">
  <g id="Group_8597" data-name="Group 8597" transform="translate(0)">
    <g id="Path_13024" data-name="Path 13024" transform="translate(-618.889 125)" fill="#23a5d6">
      <path d="M 629.6038818359375 -110.2157592773438 C 629.3375244140625 -110.2157592773438 629.0909423828125 -110.3230895996094 628.9096069335938 -110.5179748535156 L 623.5641479492188 -116.2421722412109 C 623.2085571289063 -116.6243743896484 623.2301635742188 -117.2253952026367 623.6128540039063 -117.5814743041992 C 623.788818359375 -117.745231628418 624.01806640625 -117.8354187011719 624.25830078125 -117.8354187011719 C 624.524658203125 -117.8354187011719 624.771240234375 -117.7280960083008 624.95263671875 -117.533203125 L 628.0469970703125 -114.2195816040039 L 628.6527709960938 -113.5708389282227 L 628.6527709960938 -114.4584655761719 L 628.6527709960938 -123.6991958618164 C 628.6527709960938 -124.2234725952148 629.079345703125 -124.6500091552734 629.6036376953125 -124.6500091552734 C 630.1278686523438 -124.6500091552734 630.554443359375 -124.2234725952148 630.554443359375 -123.6991958618164 L 630.554443359375 -114.4584655761719 L 630.554443359375 -113.5708618164063 L 631.1602172851563 -114.2195816040039 L 634.2542114257813 -117.5327758789063 C 634.4359741210938 -117.7281036376953 634.6825561523438 -117.8354187011719 634.948974609375 -117.8354187011719 C 635.1891479492188 -117.8354187011719 635.4183959960938 -117.745231628418 635.5944213867188 -117.5814590454102 C 635.77978515625 -117.4089736938477 635.8869018554688 -117.1746292114258 635.89599609375 -116.9215850830078 C 635.9050903320313 -116.6685333251953 635.8151245117188 -116.4270935058594 635.6426391601563 -116.2417221069336 C 635.059326171875 -115.617073059082 634.475341796875 -114.9921340942383 633.8914184570313 -114.3672027587891 C 632.7130737304688 -113.1061859130859 631.49462890625 -111.8022308349609 630.2978515625 -110.5181732177734 C 630.2826538085938 -110.5018844604492 630.2664794921875 -110.4856338500977 630.2495727539063 -110.4699020385742 C 630.0733642578125 -110.3059539794922 629.8441162109375 -110.2157592773438 629.6038818359375 -110.2157592773438 Z" stroke="none"/>
      <path d="M 629.6038818359375 -110.5657653808594 C 629.75537109375 -110.5657653808594 629.89990234375 -110.6226501464844 630.0112915039063 -110.7263031005859 C 630.0221557617188 -110.7363891601563 630.032470703125 -110.7468338012695 630.0418090820313 -110.7568054199219 C 631.23876953125 -112.0410308837891 632.457275390625 -113.3450622558594 633.6356811523438 -114.6061630249023 C 634.2196044921875 -115.231071472168 634.8035278320313 -115.8559799194336 635.3864135742188 -116.4801406860352 C 635.4952392578125 -116.5970687866211 635.5519409179688 -116.7493743896484 635.5462036132813 -116.9089813232422 C 635.5404663085938 -117.068603515625 635.472900390625 -117.216423034668 635.3560180664063 -117.3252258300781 C 635.2449951171875 -117.4285354614258 635.1004028320313 -117.4854202270508 634.948974609375 -117.4854202270508 C 634.7808227539063 -117.4854202270508 634.625244140625 -117.417724609375 634.510009765625 -117.2938919067383 L 631.416015625 -113.9807052612305 L 630.2044067382813 -112.6832504272461 L 630.2044067382813 -114.4584655761719 L 630.2044067382813 -123.6991958618164 C 630.2044067382813 -124.0304794311523 629.9349365234375 -124.3000106811523 629.6036376953125 -124.3000106811523 C 629.2723388671875 -124.3000106811523 629.0028076171875 -124.0304794311523 629.0028076171875 -123.6991958618164 L 629.0028076171875 -114.4584655761719 L 629.0028076171875 -112.683235168457 L 627.7911987304688 -113.9807052612305 L 624.6964111328125 -117.2947616577148 C 624.58203125 -117.4177093505859 624.4263916015625 -117.4854202270508 624.25830078125 -117.4854202270508 C 624.1068115234375 -117.4854202270508 623.9622802734375 -117.4285202026367 623.8512573242188 -117.3252487182617 C 623.60986328125 -117.1006317138672 623.5962524414063 -116.7215042114258 623.8199462890625 -116.4810485839844 L 629.1658325195313 -110.7563934326172 C 629.2802124023438 -110.6334609985352 629.435791015625 -110.5657653808594 629.6038818359375 -110.5657653808594 M 629.6038818359375 -109.8657608032227 C 629.2559814453125 -109.8657608032227 628.9090576171875 -110.0047454833984 628.6533813476563 -110.279541015625 L 623.308349609375 -116.0032958984375 C 622.820068359375 -116.5280914306641 622.8496704101563 -117.3493957519531 623.3743896484375 -117.8376922607422 C 623.6243896484375 -118.0703125 623.9417724609375 -118.1854248046875 624.25830078125 -118.1854248046875 C 624.606201171875 -118.1854248046875 624.953125 -118.0464401245117 625.2088623046875 -117.7716522216797 L 628.3027954101563 -114.4584655761719 L 628.3027954101563 -123.6991958618164 C 628.3027954101563 -124.4176025390625 628.8851318359375 -125.0000152587891 629.6036376953125 -125.0000152587891 C 630.322021484375 -125.0000152587891 630.9044189453125 -124.4176025390625 630.9044189453125 -123.6991958618164 L 630.9044189453125 -114.4584655761719 L 633.9984130859375 -117.7716522216797 C 634.2540893554688 -118.0464096069336 634.60107421875 -118.1854248046875 634.948974609375 -118.1854248046875 C 635.2655029296875 -118.1854248046875 635.5828247070313 -118.0703430175781 635.8328247070313 -117.8376922607422 C 636.3576049804688 -117.3493957519531 636.38720703125 -116.5280914306641 635.8988647460938 -116.0032958984375 C 634.1171875 -114.0954132080078 632.3336791992188 -112.1891326904297 630.5538940429688 -110.279541015625 C 630.5327758789063 -110.2569427490234 630.5108032226563 -110.2348785400391 630.48779296875 -110.2135009765625 C 630.23779296875 -109.9808807373047 629.92041015625 -109.8657608032227 629.6038818359375 -109.8657608032227 Z" stroke="none" fill="#fff"/>
    </g>
    <g id="Path_13025" data-name="Path 13025" transform="translate(-416.394 -500.817)" fill="#23a5d6">
      <path d="M 434.4404907226563 520.5712890625 L 419.7761840820313 520.5712890625 C 418.1042175292969 520.5712890625 416.7439880371094 519.2109985351563 416.7439880371094 517.5390625 L 416.7439880371094 514.7008666992188 C 416.7439880371094 514.1765747070313 417.1705322265625 513.75 417.6948547363281 513.75 C 418.2191467285156 513.75 418.6456909179688 514.1765747070313 418.6456909179688 514.7008666992188 L 418.6456909179688 517.5390625 C 418.6456909179688 518.1624145507813 419.15283203125 518.6695556640625 419.7761840820313 518.6695556640625 L 434.4404907226563 518.6695556640625 C 435.0638427734375 518.6695556640625 435.5710144042969 518.1624145507813 435.5710144042969 517.5390625 L 435.5710144042969 514.7008666992188 C 435.5710144042969 514.1765747070313 435.99755859375 513.75 436.5218811035156 513.75 C 437.046142578125 513.75 437.47265625 514.1765747070313 437.47265625 514.7008666992188 L 437.47265625 517.5390625 C 437.47265625 519.2109985351563 436.1124267578125 520.5712890625 434.4404907226563 520.5712890625 Z" stroke="none"/>
      <path d="M 417.6948547363281 514.1000366210938 C 417.363525390625 514.1000366210938 417.0939636230469 514.3695678710938 417.0939636230469 514.7008666992188 L 417.0939636230469 517.5390625 C 417.0939636230469 519.0180053710938 418.2972106933594 520.2212524414063 419.7761840820313 520.2212524414063 L 434.4404907226563 520.2212524414063 C 435.91943359375 520.2212524414063 437.1226501464844 519.0180053710938 437.1226501464844 517.5390625 L 437.1226501464844 514.7008666992188 C 437.1226501464844 514.3695678710938 436.8531494140625 514.1000366210938 436.5218811035156 514.1000366210938 C 436.1905517578125 514.1000366210938 435.9210205078125 514.3695678710938 435.9210205078125 514.7008666992188 L 435.9210205078125 517.5390625 C 435.9210205078125 518.3554077148438 435.2568359375 519.0195922851563 434.4404907226563 519.0195922851563 L 419.7761840820313 519.0195922851563 C 418.9598388671875 519.0195922851563 418.2956848144531 518.3554077148438 418.2956848144531 517.5390625 L 418.2956848144531 514.7008666992188 C 418.2956848144531 514.3695678710938 418.0261535644531 514.1000366210938 417.6948547363281 514.1000366210938 M 417.6948547363281 513.4000244140625 C 418.4132690429688 513.4000244140625 418.9956970214844 513.982421875 418.9956970214844 514.7008666992188 L 418.9956970214844 517.5390625 C 418.9956970214844 517.9657592773438 419.3495483398438 518.319580078125 419.7761840820313 518.319580078125 L 434.4404907226563 518.319580078125 C 434.8671875 518.319580078125 435.2210083007813 517.9657592773438 435.2210083007813 517.5390625 L 435.2210083007813 514.7008666992188 C 435.2210083007813 513.982421875 435.8034362792969 513.4000244140625 436.5218811035156 513.4000244140625 C 437.2403259277344 513.4000244140625 437.8226623535156 513.982421875 437.8226623535156 514.7008666992188 L 437.8226623535156 517.5390625 C 437.8226623535156 519.4019165039063 436.3033142089844 520.9212646484375 434.4404907226563 520.9212646484375 L 419.7761840820313 520.9212646484375 C 417.9133911132813 520.9212646484375 416.3939819335938 519.4019165039063 416.3939819335938 517.5390625 L 416.3939819335938 514.7008666992188 C 416.3939819335938 513.982421875 416.9763793945313 513.4000244140625 417.6948547363281 513.4000244140625 Z" stroke="none" fill="#fff"/>
    </g>
  </g>
</svg>
