<svg xmlns="http://www.w3.org/2000/svg" width="75" height="75" viewBox="0 0 75 75">
  <g id="Group_8666" data-name="Group 8666" transform="translate(-740 -339)">
    <g id="Group_628" data-name="Group 628" transform="translate(-166 44)">
      <path id="Symbols" d="M37.5,0A37.5,37.5,0,1,1,0,37.5,37.5,37.5,0,0,1,37.5,0Z" transform="translate(906 295)" fill="#909090"/>
    </g>
    <path id="Path_13043" data-name="Path 13043" d="M-13.14-15.72v-3.44h4.16A13.481,13.481,0,0,1-4.3-26.04a12.153,12.153,0,0,1,7.64-2.6,12.279,12.279,0,0,1,10.08,4.6l-2.84,3.6a11.8,11.8,0,0,0-3.34-2.64,8.959,8.959,0,0,0-3.9-.76A7.454,7.454,0,0,0-.84-22.62a7.349,7.349,0,0,0-2.78,3.46H5.9v3.44H-4.46q-.04.48-.04,1.46a13.772,13.772,0,0,0,.12,1.86H5.9v3.44H-3.3A6.96,6.96,0,0,0,3.22-4.8a7.776,7.776,0,0,0,3.7-.82A13.793,13.793,0,0,0,10.18-8.2l2.84,3.44a11.987,11.987,0,0,1-9.8,4.6A12.091,12.091,0,0,1-4.16-2.54,13.086,13.086,0,0,1-8.78-8.96h-4.36V-12.4h3.6a15.465,15.465,0,0,1-.12-1.92q0-.96.04-1.4Z" transform="translate(777.14 390.64)" fill="#fff"/>
  </g>
</svg>
