<svg xmlns="http://www.w3.org/2000/svg" width="75" height="75" viewBox="0 0 75 75">
  <g id="Group_8668" data-name="Group 8668" transform="translate(-1106 -339)">
    <path id="Symbols" d="M37.5,0A37.5,37.5,0,1,1,0,37.5,37.5,37.5,0,0,1,37.5,0Z" transform="translate(1106 339)" fill="#23A5D6"/>
    <path id="Path_13045" data-name="Path 13045" d="M-1.8-20.64v5.24H4.88v3.92H-1.8V-4.2H10.12V0H-9.8V-4.2h3.28v-7.28H-9.96V-15.4h3.44v-5q0-4.84,2.44-7.06a9.142,9.142,0,0,1,6.4-2.22A8.579,8.579,0,0,1,10.2-25.2L6.88-22.56a4.853,4.853,0,0,0-4.24-2.72,4.66,4.66,0,0,0-3.18,1.1A4.47,4.47,0,0,0-1.8-20.64Z" transform="translate(1142.96 391.68)" fill="#fff"/>
  </g>
</svg>
