<svg xmlns="http://www.w3.org/2000/svg" width="75" height="75" viewBox="0 0 75 75">
  <g id="Group_8670" data-name="Group 8670" transform="translate(-923 -339)">
    <g id="Group_629" data-name="Group 629" transform="translate(923 339)">
      <path id="Symbols" d="M37.5,0A37.5,37.5,0,1,1,0,37.5,37.5,37.5,0,0,1,37.5,0Z" transform="translate(0 0)" fill="#23A5D6"/>
    </g>
    <g id="Group_646" data-name="Group 646" transform="translate(157.288 -429.241)">
      <g id="Group_643" data-name="Group 643" transform="translate(782.712 786.241)">
        <g id="Group_640" data-name="Group 640" transform="translate(8.553 0)">
          <path id="Path_12783" data-name="Path 12783" d="M838.114,814.252v-1.519l-.79,1.519s-4.679.547-5.1,1.7c0,0-.79-8.75,7.656-10.634,0,0-1.033,6.319,4.193,7.109s5.165-7.109,5.165-7.109,11.241,2.066,6.016,18.047c0,0-.122-4.071-2.977-6.5,0,0,.243-3.585-1.094-3.95a12.049,12.049,0,0,1-.536,2.153S846.038,812.27,838.114,814.252Z" transform="translate(-832.201 -802.023)" fill="#fff"/>
          <ellipse id="Ellipse_116" data-name="Ellipse 116" cx="3.6" cy="4.673" rx="3.6" ry="4.673" transform="translate(8.704)" fill="#fff"/>
        </g>
        <g id="Group_641" data-name="Group 641" transform="translate(0 12.911)">
          <ellipse id="Ellipse_117" data-name="Ellipse 117" cx="4.673" cy="3.6" rx="4.673" ry="3.6" transform="translate(0 16.717) rotate(-30)" fill="#fff"/>
          <path id="Path_12784" data-name="Path 12784" d="M807.032,860.949s-15.433,1.4-13.006,14.3c0,0,5.461-4.248,8.571.455s-3.868,7.585-3.868,7.585,5.31,6.22,12.971,1.138a14.963,14.963,0,0,1-3.868-3.565h-1.669l1.138-.91s-4.882-2.958-5.513-11.074l-2.454.758s1.488-2.5,3.4-3.034C802.734,866.6,803.056,863.794,807.032,860.949Z" transform="translate(-791.857 -860.949)" fill="#fff"/>
        </g>
        <g id="Group_642" data-name="Group 642" transform="translate(16.278 15.299)">
          <ellipse id="Ellipse_118" data-name="Ellipse 118" cx="3.6" cy="4.673" rx="3.6" ry="4.673" transform="matrix(0.59, -0.807, 0.807, 0.59, 13.739, 15.356)" fill="#fff"/>
          <path id="Path_12785" data-name="Path 12785" d="M894.652,874.768s7.965,3.413,5.31,11.681c0,0-4.627-3.489-8.116,0s2.731,7.889,3.489,8.268c0,0-7.206,8.268-18.432-3.489a10.453,10.453,0,0,0,7.282.683,12.461,12.461,0,0,0,3.641.91l-1.593-1.745s5.006-1.944,6.9-10.264l1.128.555-.652-1.517S894.955,876.74,894.652,874.768Z" transform="translate(-876.902 -874.768)" fill="#fff"/>
        </g>
      </g>
      <g id="Group_644" data-name="Group 644" transform="translate(794.602 799.358)">
        <path id="Path_12786" data-name="Path 12786" d="M860.449,880.02a8.941,8.941,0,1,1,8.941-8.941A8.951,8.951,0,0,1,860.449,880.02Zm0-16.154a7.213,7.213,0,1,0,7.213,7.213A7.221,7.221,0,0,0,860.449,863.866Z" transform="translate(-851.508 -862.138)" fill="#fff"/>
      </g>
      <g id="Group_645" data-name="Group 645" transform="translate(800.669 804.012)">
        <path id="Path_12787" data-name="Path 12787" d="M886.615,895.3l1.632-.169a1.4,1.4,0,0,0,.414.877,1.123,1.123,0,0,0,.793.323,1.1,1.1,0,0,0,.869-.417,1.9,1.9,0,0,0,.355-1.256,1.72,1.72,0,0,0-.353-1.18,1.174,1.174,0,0,0-.918-.394,1.668,1.668,0,0,0-1.265.624l-1.329-.193.839-4.448h4.331V890.6h-3.09l-.257,1.452a2.5,2.5,0,0,1,2.967.519,2.855,2.855,0,0,1,.758,2.058,3.086,3.086,0,0,1-.612,1.883,2.713,2.713,0,0,1-2.314,1.131,2.872,2.872,0,0,1-1.93-.635A2.617,2.617,0,0,1,886.615,895.3Z" transform="translate(-886.615 -889.065)" fill="#fff"/>
      </g>
    </g>
  </g>
</svg>
