<svg xmlns="http://www.w3.org/2000/svg" width="112.277" height="18.946" viewBox="0 0 112.277 18.946">
  <g id="Group_931" data-name="Group 931" transform="translate(-400.036 -262)">
    <path id="Path_13014" data-name="Path 13014" d="M499.055,269.986a4.639,4.639,0,0,1-2.672.628H495.2l.909-4.912h.872a4.077,4.077,0,0,1,2.217.484,1.917,1.917,0,0,1,.854,1.713,2.392,2.392,0,0,1-.994,2.087m-70.746,6.164h-9.178l.593-3.211h5.756l.654-3.615h-5.7l.551-3.178h9.162ZM504,263.391A10.831,10.831,0,0,0,497.931,262h-7.012l-2.607,14.151h-9.185l.589-3.211h5.533l.658-3.606-5.53.01.592-3.2h5.7l.758-4.147H475.851l-2.474,13.425h-4.245L471.624,262h-6.052L463.1,275.425H458.96L461.454,262h-6.045L452.8,276.152h-9.25l.583-3.211h5.559l.655-3.585-5.551-.005.59-3.2h5.762L451.9,262H415.834l-2.053,11.214L409.691,262h-6.276l-3.379,18.3h5.995l2.044-11.522,3.969,11.522h21.483l2.612-14.153H439.5L436.888,280.3h56.531l1.637-8.935,2.654,8.935h6L500.96,273l.627-.136a5.372,5.372,0,0,0,3.215-1.889,5.841,5.841,0,0,0,1.134-3.689,4.372,4.372,0,0,0-1.937-3.9" fill="#8bc833"/>
    <path id="Path_13015" data-name="Path 13015" d="M561.725,285.345l.817-.042a1.187,1.187,0,0,0,.4-.075.424.424,0,0,0,.215-.184.453.453,0,0,0,.062-.261.434.434,0,0,0-.165-.33.7.7,0,0,0-.475-.107l-.909.046Zm-.3,1.625-.147-2.878,1.277-.065a1.663,1.663,0,0,1,.587.048.637.637,0,0,1,.334.258.8.8,0,0,1,.141.426.722.722,0,0,1-.171.527,1.006,1.006,0,0,1-.6.3,1.042,1.042,0,0,1,.237.131,1.955,1.955,0,0,1,.335.368l.537.758-.474.024-.412-.58q-.18-.251-.295-.383a.846.846,0,0,0-.2-.182.577.577,0,0,0-.177-.069,1.145,1.145,0,0,0-.213,0l-.44.022.064,1.279Z" transform="translate(-52.783 -7.21)" fill="#8bc833"/>
    <path id="Path_13016" data-name="Path 13016" d="M559.417,284.969a2.233,2.233,0,0,1,4.46-.227c0,.038,0,.078,0,.114a2.233,2.233,0,0,1-4.464.113m2.092-2.8a2.691,2.691,0,1,0,2.824,2.551h0a2.692,2.692,0,0,0-2.824-2.549" transform="translate(-52.024 -6.601)" fill="#8bc833"/>
  </g>
</svg>
