<svg xmlns="http://www.w3.org/2000/svg" width="26.2" height="26.245" viewBox="0 0 26.2 26.245">
  <g id="password" transform="translate(0.6 0.6)" opacity="0.5">
    <path id="Path_12806" data-name="Path 12806" d="M187,224v-2.061a6.066,6.066,0,0,1,6.048-6.048h0a6.066,6.066,0,0,1,6.048,6.048V224" transform="translate(-184.581 -215.889)" fill="none" stroke="#909090" stroke-linejoin="round" stroke-width="1.2"/>
    <path id="Path_12807" data-name="Path 12807" d="M197.935,251.5v1.613a1.613,1.613,0,0,1-1.613,1.613h-13.71A1.613,1.613,0,0,1,181,253.113V239h16.935v3.629" transform="translate(-181 -229.681)" fill="none" stroke="#909090" stroke-linejoin="round" stroke-width="1.2"/>
    <path id="Path_12808" data-name="Path 12808" d="M198.419,249a2.417,2.417,0,0,0-1.613,4.219v2.233a1.613,1.613,0,0,0,1.613,1.613" transform="translate(-189.952 -235.649)" fill="none" stroke="#909090" stroke-linecap="round" stroke-linejoin="round" stroke-width="1.2"/>
    <g id="Group_8566" data-name="Group 8566" transform="translate(10.227 14.084)">
      <rect id="Rectangle_1584" data-name="Rectangle 1584" width="15" height="5" transform="translate(-0.227 0.31)" fill="none" stroke="#909090" stroke-linejoin="round" stroke-width="1.2"/>
      <g id="Group_8565" data-name="Group 8565" transform="translate(2.273 2.273)">
        <g id="Group_8562" data-name="Group 8562" transform="translate(0 0)">
          <line id="Line_148" data-name="Line 148" y2="1" transform="translate(1.5 0.037)" fill="none" stroke="#909090" stroke-linecap="round" stroke-miterlimit="10" stroke-width="1.2"/>
          <line id="Line_149" data-name="Line 149" x1="0.806" y1="0.269" transform="translate(0 0.758)" fill="none" stroke="#909090" stroke-linecap="round" stroke-miterlimit="10" stroke-width="1.2"/>
          <line id="Line_150" data-name="Line 150" y1="0.269" x2="0.806" transform="translate(0.806 0.758)" fill="none" stroke="#909090" stroke-linecap="round" stroke-miterlimit="10" stroke-width="1.2"/>
          <line id="Line_151" data-name="Line 151" x1="0.538" y2="0.806" transform="translate(0.269 1.026)" fill="none" stroke="#909090" stroke-linecap="round" stroke-miterlimit="10" stroke-width="1.2"/>
          <line id="Line_152" data-name="Line 152" x2="0.538" y2="0.806" transform="translate(0.806 1.026)" fill="none" stroke="#909090" stroke-linecap="round" stroke-miterlimit="10" stroke-width="1.2"/>
        </g>
        <g id="Group_8563" data-name="Group 8563" transform="translate(4.032 0)">
          <line id="Line_153" data-name="Line 153" y2="1" transform="translate(0.468 0.037)" fill="none" stroke="#909090" stroke-linecap="round" stroke-miterlimit="10" stroke-width="1.2"/>
          <line id="Line_154" data-name="Line 154" x1="0.806" y1="0.269" transform="translate(0 0.758)" fill="none" stroke="#909090" stroke-linecap="round" stroke-miterlimit="10" stroke-width="1.2"/>
          <line id="Line_155" data-name="Line 155" y1="0.269" x2="0.806" transform="translate(0.806 0.758)" fill="none" stroke="#909090" stroke-linecap="round" stroke-miterlimit="10" stroke-width="1.2"/>
          <line id="Line_156" data-name="Line 156" x1="0.538" y2="0.806" transform="translate(0.269 1.026)" fill="none" stroke="#909090" stroke-linecap="round" stroke-miterlimit="10" stroke-width="1.2"/>
          <line id="Line_157" data-name="Line 157" x2="0.538" y2="0.806" transform="translate(0.806 1.026)" fill="none" stroke="#909090" stroke-linecap="round" stroke-miterlimit="10" stroke-width="1.2"/>
        </g>
        <g id="Group_8564" data-name="Group 8564" transform="translate(8.065 0)">
          <line id="Line_158" data-name="Line 158" y2="1" transform="translate(1.435 0.037)" fill="none" stroke="#909090" stroke-linecap="round" stroke-miterlimit="10" stroke-width="1.2"/>
          <line id="Line_159" data-name="Line 159" x1="0.806" y1="0.269" transform="translate(0 0.758)" fill="none" stroke="#909090" stroke-linecap="round" stroke-miterlimit="10" stroke-width="1.2"/>
          <line id="Line_160" data-name="Line 160" y1="0.269" x2="0.806" transform="translate(0.806 0.758)" fill="none" stroke="#909090" stroke-linecap="round" stroke-miterlimit="10" stroke-width="1.2"/>
          <line id="Line_161" data-name="Line 161" x1="0.538" y2="0.806" transform="translate(0.269 1.026)" fill="none" stroke="#909090" stroke-linecap="round" stroke-miterlimit="10" stroke-width="1.2"/>
          <line id="Line_162" data-name="Line 162" x2="0.538" y2="0.806" transform="translate(0.806 1.026)" fill="none" stroke="#909090" stroke-linecap="round" stroke-miterlimit="10" stroke-width="1.2"/>
        </g>
      </g>
    </g>
  </g>
</svg>
