<svg xmlns="http://www.w3.org/2000/svg" width="71.5" height="24.417" viewBox="0 0 71.5 24.417">
  <path id="Path_13013" data-name="Path 13013" d="M330.684,156.123l5.954-1.065V177.9h-5.954Zm8.687,0V177.9h5.958V155.058ZM322.208,177.9h5.955v-16.7h-5.955Zm-39.326-14.34c-.753-.051-2.5-.163-2.5-1.733,0-1.888,2.512-1.888,3.453-1.888a20.62,20.62,0,0,1,5.325.944s.848.3,1.58.608l.067.019v-5.179l-.1-.028a21.226,21.226,0,0,0-7.8-1.24c-6.707,0-9.085,3.907-9.085,7.254,0,1.933.829,6.475,8.516,7,.648.038,2.378.143,2.378,1.758,0,1.338-1.418,2.13-3.8,2.13a18.626,18.626,0,0,1-6.675-1.3v5.337a31.1,31.1,0,0,0,7.938.9c6.558,0,9.495-3.7,9.495-7.362C291.684,166.623,288.4,163.924,282.882,163.555Zm35.976-2.61c-5.5.178-8.3,2.642-8.3,7.553v9.4h6v-7.661c0-2.94.382-4.2,3.872-4.317v-4.886A8.442,8.442,0,0,0,318.858,160.945Zm-16.149.226a20.463,20.463,0,0,1-3.389,5.815V155.058l-6.139,1.214V177.9h6.139v-6.682a23.241,23.241,0,0,1,2.657,6.682h7.356c-.731-3.024-3.907-8.6-3.907-8.6a26.822,26.822,0,0,0,4.308-8.126Zm22.478-1.583a2.933,2.933,0,1,0-2.934-2.931A2.935,2.935,0,0,0,325.188,159.588Z" transform="translate(-273.829 -153.723)" fill="#691759"/>
</svg>
