<svg xmlns="http://www.w3.org/2000/svg" width="28.973" height="18.744" viewBox="0 0 28.973 18.744">
  <g id="Group_8666" data-name="Group 8666" transform="translate(-51 -201.364)">
    <g id="Group_8601" data-name="Group 8601" transform="translate(51 201.364)">
      <path id="Path_13029" data-name="Path 13029" d="M123.135,1217.676a.512.512,0,0,1-.221-.05l-5.748-2.738a.514.514,0,0,1,.1-.964l26.458-6.386a.514.514,0,0,1,.328.971l-20.71,9.124A.52.52,0,0,1,123.135,1217.676Zm-4.217-3.093,4.225,2.013,15.224-6.707Z" transform="translate(-115.386 -1207.522)" fill="#23a5d6"/>
      <path id="Path_13030" data-name="Path 13030" d="M241.831,1223.967a.519.519,0,0,1-.236-.058l-7.938-4.106a.514.514,0,0,1-.06-.877l16.058-11.313a.514.514,0,0,1,.751.66l-8.12,15.419A.515.515,0,0,1,241.831,1223.967Zm-6.948-4.688,6.732,3.482,6.886-13.076Z" transform="translate(-221.493 -1207.519)" fill="#23a5d6"/>
      <path id="Path_13031" data-name="Path 13031" d="M186.333,1317.692a.515.515,0,0,1-.43-.232l-4.562-6.934a.514.514,0,1,1,.86-.565l3.618,5.5v-2.844a.514.514,0,0,1,1.029,0v4.562a.514.514,0,0,1-.514.515Z" transform="translate(-174.023 -1300.605)" fill="#23a5d6"/>
      <path id="Path_13032" data-name="Path 13032" d="M232.872,1362.359a.514.514,0,0,1-.306-.928l3.467-2.555a.514.514,0,0,1,.611.828l-3.467,2.555A.515.515,0,0,1,232.872,1362.359Z" transform="translate(-220.561 -1345.272)" fill="#23a5d6"/>
      <path id="Path_13033" data-name="Path 13033" d="M106.5,1332.583a.514.514,0,0,1-.22-.979l3.086-1.457a.514.514,0,0,1,.439.93l-3.086,1.457A.512.512,0,0,1,106.5,1332.583Z" transform="translate(-105.475 -1319.154)" fill="#23a5d6"/>
      <path id="Path_13034" data-name="Path 13034" d="M100.742,1377.176a.514.514,0,0,1-.258-.96l3.257-1.886a.515.515,0,1,1,.516.891L101,1377.107A.515.515,0,0,1,100.742,1377.176Z" transform="translate(-100.227 -1359.375)" fill="#23a5d6"/>
      <path id="Path_13035" data-name="Path 13035" d="M151.631,1387.738a.514.514,0,0,1-.258-.96l3.257-1.886a.515.515,0,1,1,.516.891l-3.257,1.886A.513.513,0,0,1,151.631,1387.738Z" transform="translate(-146.573 -1368.995)" fill="#23a5d6"/>
    </g>
  </g>
</svg>
