<svg xmlns="http://www.w3.org/2000/svg" width="75" height="75" viewBox="0 0 75 75">
  <g id="Group_647" data-name="Group 647" transform="translate(4902.136 -4150.095)">
    <path id="Path_12788" data-name="Path 12788" d="M-4863.918,4150.1h-1.437c-20.314,0-36.781,16.789-36.781,37.5h0a38.348,38.348,0,0,0,.823,7.913l12.167-12.405a5.454,5.454,0,0,1,7.819,0h0a5.714,5.714,0,0,1,0,7.971l-15.55,15.854a37.57,37.57,0,0,0,3.195,4.588l16.2-16.52a5.456,5.456,0,0,1,7.82,0h0a5.716,5.716,0,0,1,0,7.972l-15.754,16.062a36.467,36.467,0,0,0,4.835,2.71l14.247-14.525a5.455,5.455,0,0,1,7.82,0,5.716,5.716,0,0,1,0,7.972l-9.614,9.8q1.373.1,2.771.105h1.438c20.314,0,36.781-16.79,36.781-37.5h0C-4827.137,4166.885-4843.6,4150.1-4863.918,4150.1Z" transform="translate(0 0)" fill="#23A5D6"/>
    <path id="Path_12789" data-name="Path 12789" d="M-4879.854,4237.475h0a5.529,5.529,0,0,0-7.819,0l-12.167,12.168a36.554,36.554,0,0,0,4.437,11.2l15.55-15.551A5.528,5.528,0,0,0-4879.854,4237.475Z" transform="translate(-1.472 -54.095)" fill="#fff"/>
    <path id="Path_12790" data-name="Path 12790" d="M-4854.537,4270.008h0a5.529,5.529,0,0,0-7.819,0l-16.2,16.2a36.991,36.991,0,0,0,8.268,7.371l15.754-15.754A5.529,5.529,0,0,0-4854.537,4270.008Z" transform="translate(-15.122 -74.434)" fill="#fff"/>
    <path id="Path_12791" data-name="Path 12791" d="M-4819.955,4303.427a5.528,5.528,0,0,0-7.819,0l-14.247,14.247a36.556,36.556,0,0,0,12.453,3.186l9.614-9.614A5.529,5.529,0,0,0-4819.955,4303.427Z" transform="translate(-38.557 -95.868)" fill="#fff"/>
  </g>
</svg>
