<svg id="Group_818" data-name="Group 818" xmlns="http://www.w3.org/2000/svg" width="23.225" height="25.911" viewBox="0 0 23.225 25.911">
  <path id="Path_12892" data-name="Path 12892" d="M522.4,514.719h-6.257V493.267h10.726v4.469a2.682,2.682,0,0,0,2.682,2.682h4.469v.894a.894.894,0,1,0,1.788,0V499.37a1.788,1.788,0,0,0-.524-1.264l-6.1-6.1a1.787,1.787,0,0,0-1.264-.523H516.146a1.788,1.788,0,0,0-1.788,1.788v21.452a1.788,1.788,0,0,0,1.788,1.788H522.4a.894.894,0,0,0,0-1.788Z" transform="translate(-514.358 -491.479)" fill="#fff"/>
  <path id="Path_12893" data-name="Path 12893" d="M576.864,734.843h-1.788a.894.894,0,1,0,0,1.787h1.788a.894.894,0,1,0,0-1.787Z" transform="translate(-570.607 -720.298)" fill="#fff"/>
  <path id="Path_12894" data-name="Path 12894" d="M576.864,805.55h-1.788a.894.894,0,0,0,0,1.788h1.788a.894.894,0,0,0,0-1.788Z" transform="translate(-570.607 -786.779)" fill="#fff"/>
  <path id="Path_12895" data-name="Path 12895" d="M580.439,581.215h-5.363a.894.894,0,0,0,0,1.788h5.363a.894.894,0,0,0,0-1.788Z" transform="translate(-570.607 -575.852)" fill="#fff"/>
  <path id="Path_12896" data-name="Path 12896" d="M581.333,652.815a.894.894,0,0,0-.894-.894h-5.363a.894.894,0,0,0,0,1.788h5.363A.894.894,0,0,0,581.333,652.815Z" transform="translate(-570.607 -642.332)" fill="#fff"/>
  <path id="Path_12897" data-name="Path 12897" d="M671.3,686.225a7.136,7.136,0,1,0,7.136,7.136A7.144,7.144,0,0,0,671.3,686.225Zm3.064,7.665-2.485-2.485v6.128h-1.158V691.4l-2.485,2.485-.819-.819,3.883-3.882,3.883,3.882Z" transform="translate(-655.208 -674.586)" fill="#fff"/>
</svg>
