<svg xmlns="http://www.w3.org/2000/svg" width="75" height="75" viewBox="0 0 75 75">
  <g id="Group_8667" data-name="Group 8667" transform="translate(-923 -339)">
    <g id="Group_629" data-name="Group 629" transform="translate(923 339)">
      <path id="Symbols" d="M37.5,0A37.5,37.5,0,1,1,0,37.5,37.5,37.5,0,0,1,37.5,0Z" transform="translate(0 0)" fill="#23A5D6"/>
    </g>
    <path id="Path_13044" data-name="Path 13044" d="M-1.06,2.88V-.04A17.379,17.379,0,0,1-10.9-4.4l2.92-3.48A13.879,13.879,0,0,0-1.06-4.4v-7.76A16.333,16.333,0,0,1-7.68-15a6.424,6.424,0,0,1-2.1-5.22,7.3,7.3,0,0,1,2.42-5.66,9.791,9.791,0,0,1,6.3-2.4v-2H1.5v2.04a16.7,16.7,0,0,1,8.32,3l-2.6,3.68A12.888,12.888,0,0,0,1.5-23.88v7.52h.12a16.214,16.214,0,0,1,6.76,2.92A6.626,6.626,0,0,1,10.54-8.1,7.265,7.265,0,0,1,8.06-2.4,10.319,10.319,0,0,1,1.5,0V2.88ZM1.5-4.28A5.6,5.6,0,0,0,4.54-5.4,2.878,2.878,0,0,0,5.66-7.72a2.887,2.887,0,0,0-.88-2.22A8.71,8.71,0,0,0,1.5-11.48ZM-1.06-24a4.786,4.786,0,0,0-2.82,1.06A2.866,2.866,0,0,0-4.9-20.7a2.824,2.824,0,0,0,.8,2.12,8.118,8.118,0,0,0,3.04,1.5Z" transform="translate(960.901 390.28)" fill="#fff"/>
  </g>
</svg>
