<svg xmlns="http://www.w3.org/2000/svg" width="21.426" height="21.016" viewBox="0 0 21.426 21.016">
  <g id="Group_8670" data-name="Group 8670" transform="translate(-54.547 -590.756)">
    <g id="Group_8600" data-name="Group 8600" transform="translate(54.547 590.756)">
      <path id="Path_12802" data-name="Path 12802" d="M-2269.464,4258.386h-.411a10.508,10.508,0,0,0-10.508,10.508h0a10.563,10.563,0,0,0,.235,2.217l3.476-3.476a1.58,1.58,0,0,1,2.234,0h0a1.579,1.579,0,0,1,0,2.233l-4.442,4.443a10.491,10.491,0,0,0,.913,1.285l4.629-4.628a1.58,1.58,0,0,1,2.234,0h0a1.579,1.579,0,0,1,0,2.234l-4.5,4.5a10.518,10.518,0,0,0,1.382.759l4.07-4.07a1.58,1.58,0,0,1,2.234,0,1.579,1.579,0,0,1,0,2.233l-2.747,2.747c.261.019.525.029.792.029h.411a10.508,10.508,0,0,0,10.508-10.508h0A10.508,10.508,0,0,0-2269.464,4258.386Z" transform="translate(2280.382 -4258.386)" fill="#909090"/>
      <path id="Path_12803" data-name="Path 12803" d="M-2272.378,4344.609h0a1.58,1.58,0,0,0-2.234,0l-3.476,3.477a10.453,10.453,0,0,0,1.268,3.2l4.442-4.442A1.58,1.58,0,0,0-2272.378,4344.609Z" transform="translate(2278.323 -4335.361)" fill="#fff"/>
      <path id="Path_12804" data-name="Path 12804" d="M-2249.942,4377.143h0a1.579,1.579,0,0,0-2.234,0l-4.629,4.628a10.565,10.565,0,0,0,2.362,2.106l4.5-4.5A1.58,1.58,0,0,0-2249.942,4377.143Z" transform="translate(2259.22 -4364.561)" fill="#fff"/>
      <path id="Path_12805" data-name="Path 12805" d="M-2213.963,4410.563a1.58,1.58,0,0,0-2.234,0l-4.07,4.07a10.437,10.437,0,0,0,3.558.91l2.746-2.747A1.578,1.578,0,0,0-2213.963,4410.563Z" transform="translate(2226.426 -4394.557)" fill="#fff"/>
    </g>
  </g>
</svg>
